<mxfile host="app.diagrams.net" modified="2020-12-21T10:50:43.399Z" agent="5.0 (Windows NT 10.0; Win64; x64) AppleWebKit/537.36 (KHTML, like Gecko) Chrome/87.0.4280.88 Safari/537.36" etag="a2g9U0JFKB_4eo7OUB-Z" version="14.1.1" type="github">
  <diagram id="_VWFgmsc36bpR6t_Q_1w" name="Page-1">
    <mxGraphModel dx="1422" dy="762" grid="1" gridSize="10" guides="1" tooltips="1" connect="1" arrows="1" fold="1" page="1" pageScale="1" pageWidth="850" pageHeight="1100" math="0" shadow="0">
      <root>
        <mxCell id="0" />
        <mxCell id="1" parent="0" />
        <mxCell id="EEsalVjFLMn4Mrq5zuK--8" value="" style="ellipse;whiteSpace=wrap;html=1;aspect=fixed;fontColor=#333333;fillColor=#000000;" parent="1" vertex="1">
          <mxGeometry x="520" y="320" width="10" height="10" as="geometry" />
        </mxCell>
        <mxCell id="EEsalVjFLMn4Mrq5zuK--9" value="" style="ellipse;whiteSpace=wrap;html=1;aspect=fixed;fontColor=#333333;fillColor=#000000;" parent="1" vertex="1">
          <mxGeometry x="560" y="320" width="10" height="10" as="geometry" />
        </mxCell>
        <mxCell id="EEsalVjFLMn4Mrq5zuK--10" value="" style="endArrow=none;html=1;exitX=1;exitY=0.5;exitDx=0;exitDy=0;" parent="1" source="EEsalVjFLMn4Mrq5zuK--8" edge="1">
          <mxGeometry width="50" height="50" relative="1" as="geometry">
            <mxPoint x="510" y="330" as="sourcePoint" />
            <mxPoint x="560" y="325" as="targetPoint" />
          </mxGeometry>
        </mxCell>
        <mxCell id="EEsalVjFLMn4Mrq5zuK--11" value="" style="ellipse;whiteSpace=wrap;html=1;aspect=fixed;fontColor=#333333;fillColor=#000000;" parent="1" vertex="1">
          <mxGeometry x="480" y="298" width="10" height="10" as="geometry" />
        </mxCell>
        <mxCell id="EEsalVjFLMn4Mrq5zuK--12" value="" style="ellipse;whiteSpace=wrap;html=1;aspect=fixed;fontColor=#333333;fillColor=#000000;" parent="1" vertex="1">
          <mxGeometry x="480" y="340" width="10" height="10" as="geometry" />
        </mxCell>
        <mxCell id="EEsalVjFLMn4Mrq5zuK--13" value="" style="ellipse;whiteSpace=wrap;html=1;aspect=fixed;fontColor=#333333;fillColor=#000000;" parent="1" vertex="1">
          <mxGeometry x="590" y="288" width="10" height="10" as="geometry" />
        </mxCell>
        <mxCell id="EEsalVjFLMn4Mrq5zuK--14" value="" style="ellipse;whiteSpace=wrap;html=1;aspect=fixed;fontColor=#333333;fillColor=#000000;" parent="1" vertex="1">
          <mxGeometry x="590" y="350" width="10" height="10" as="geometry" />
        </mxCell>
        <mxCell id="EEsalVjFLMn4Mrq5zuK--15" value="" style="endArrow=none;html=1;exitX=0.026;exitY=0.291;exitDx=0;exitDy=0;entryX=0.846;entryY=0.711;entryDx=0;entryDy=0;entryPerimeter=0;exitPerimeter=0;" parent="1" source="EEsalVjFLMn4Mrq5zuK--8" target="EEsalVjFLMn4Mrq5zuK--11" edge="1">
          <mxGeometry width="50" height="50" relative="1" as="geometry">
            <mxPoint x="415" y="330" as="sourcePoint" />
            <mxPoint x="415" y="298" as="targetPoint" />
          </mxGeometry>
        </mxCell>
        <mxCell id="EEsalVjFLMn4Mrq5zuK--16" value="" style="endArrow=none;html=1;entryX=0.967;entryY=0.256;entryDx=0;entryDy=0;entryPerimeter=0;exitX=0.017;exitY=0.708;exitDx=0;exitDy=0;exitPerimeter=0;" parent="1" source="EEsalVjFLMn4Mrq5zuK--8" target="EEsalVjFLMn4Mrq5zuK--12" edge="1">
          <mxGeometry width="50" height="50" relative="1" as="geometry">
            <mxPoint x="521" y="329" as="sourcePoint" />
            <mxPoint x="508.53553390593265" y="308.5355339059327" as="targetPoint" />
          </mxGeometry>
        </mxCell>
        <mxCell id="EEsalVjFLMn4Mrq5zuK--17" value="" style="endArrow=none;html=1;exitX=1;exitY=1;exitDx=0;exitDy=0;entryX=0;entryY=0;entryDx=0;entryDy=0;" parent="1" source="EEsalVjFLMn4Mrq5zuK--9" target="EEsalVjFLMn4Mrq5zuK--14" edge="1">
          <mxGeometry width="50" height="50" relative="1" as="geometry">
            <mxPoint x="531.4644660940672" y="338.5355339059327" as="sourcePoint" />
            <mxPoint x="508.53553390593265" y="361.46446609406735" as="targetPoint" />
          </mxGeometry>
        </mxCell>
        <mxCell id="EEsalVjFLMn4Mrq5zuK--18" value="" style="endArrow=none;html=1;exitX=0;exitY=1;exitDx=0;exitDy=0;entryX=1;entryY=0;entryDx=0;entryDy=0;" parent="1" source="EEsalVjFLMn4Mrq5zuK--13" target="EEsalVjFLMn4Mrq5zuK--9" edge="1">
          <mxGeometry width="50" height="50" relative="1" as="geometry">
            <mxPoint x="578.5355339059153" y="338.53553390591526" as="sourcePoint" />
            <mxPoint x="601.4644660940672" y="361.46446609406735" as="targetPoint" />
          </mxGeometry>
        </mxCell>
        <mxCell id="UOBrOz-LC9Giuu8M2wRQ-1" value="" style="endArrow=none;html=1;exitX=0;exitY=0;exitDx=0;exitDy=0;entryX=0.699;entryY=0.914;entryDx=0;entryDy=0;entryPerimeter=0;" parent="1" target="UOBrOz-LC9Giuu8M2wRQ-2" edge="1">
          <mxGeometry width="50" height="50" relative="1" as="geometry">
            <mxPoint x="562.9244660940672" y="320.92446609406727" as="sourcePoint" />
            <mxPoint x="539.9955339059327" y="297.9955339059328" as="targetPoint" />
          </mxGeometry>
        </mxCell>
        <mxCell id="UOBrOz-LC9Giuu8M2wRQ-2" value="" style="ellipse;whiteSpace=wrap;html=1;aspect=fixed;fontColor=#333333;fillColor=#000000;" parent="1" vertex="1">
          <mxGeometry x="540" y="283" width="10" height="10" as="geometry" />
        </mxCell>
        <mxCell id="UOBrOz-LC9Giuu8M2wRQ-4" value="" style="endArrow=none;html=1;exitX=1;exitY=0.5;exitDx=0;exitDy=0;" parent="1" source="EEsalVjFLMn4Mrq5zuK--13" edge="1">
          <mxGeometry width="50" height="50" relative="1" as="geometry">
            <mxPoint x="601.4644660940671" y="306.5355339059329" as="sourcePoint" />
            <mxPoint x="630" y="293" as="targetPoint" />
          </mxGeometry>
        </mxCell>
        <mxCell id="UOBrOz-LC9Giuu8M2wRQ-5" value="" style="ellipse;whiteSpace=wrap;html=1;aspect=fixed;fontColor=#333333;fillColor=#000000;" parent="1" vertex="1">
          <mxGeometry x="630" y="288" width="10" height="10" as="geometry" />
        </mxCell>
      </root>
    </mxGraphModel>
  </diagram>
</mxfile>
